<svg width="41" height="41" viewBox="0 0 41 41" fill="none" xmlns="http://www.w3.org/2000/svg">
<g clip-path="url(#clip0_141_3)">
<g clip-path="url(#clip1_141_3)">
<g opacity="0.01" filter="url(#filter0_d_141_3)">
<rect x="0.959961" y="0.548584" width="40" height="40" rx="6" fill="black" fill-opacity="0.01"/>
</g>
<rect opacity="0.16" x="0.959961" y="0.548584" width="40" height="40" rx="6" fill="#FFB77E"/>
</g>
</g>
<path fill-rule="evenodd" clip-rule="evenodd" d="M26.96 11.9772C28.063 11.9772 28.96 12.8315 28.96 13.8819V15.7867C30.063 15.7867 30.96 16.641 30.96 17.6915V27.2153C30.96 28.2657 30.063 29.12 28.96 29.12H13.96C12.754 29.12 10.96 28.3591 10.96 26.2629V14.8343C10.96 13.2591 12.306 11.9772 13.96 11.9772H26.96ZM26.96 13.8819H13.96C13.408 13.8819 12.96 14.3096 12.96 14.8343C12.96 15.3591 13.408 15.7867 13.96 15.7867H26.96V13.8819ZM13.972 27.2153H28.96V17.6915H13.96C13.607 17.6915 13.274 17.6229 12.96 17.5153V26.2629C12.96 27.0296 13.51 27.2038 13.972 27.2153ZM28.1028 21.9772H25.2457V24.8343H28.1028V21.9772Z" fill="#FFAB00"/>
<defs>
<filter id="filter0_d_141_3" x="0.959961" y="0.548584" width="40" height="40" filterUnits="userSpaceOnUse" color-interpolation-filters="sRGB">
<feFlood flood-opacity="0" result="BackgroundImageFix"/>
<feColorMatrix in="SourceAlpha" type="matrix" values="0 0 0 0 0 0 0 0 0 0 0 0 0 0 0 0 0 0 127 0" result="hardAlpha"/>
<feOffset/>
<feColorMatrix type="matrix" values="0 0 0 0 0 0 0 0 0 0 0 0 0 0 0 0 0 0 0.01 0"/>
<feBlend mode="normal" in2="BackgroundImageFix" result="effect1_dropShadow_141_3"/>
<feBlend mode="normal" in="SourceGraphic" in2="effect1_dropShadow_141_3" result="shape"/>
</filter>
<clipPath id="clip0_141_3">
<rect width="40" height="40" fill="white" transform="translate(0.959961 0.548584)"/>
</clipPath>
<clipPath id="clip1_141_3">
<rect width="40" height="40" fill="white" transform="translate(0.959961 0.548584)"/>
</clipPath>
</defs>
</svg>
