<svg width="42" height="42" viewBox="0 0 42 42" fill="none" xmlns="http://www.w3.org/2000/svg">
<g opacity="0.01" filter="url(#filter0_d_0_865)">
<rect width="42" height="42" rx="6" fill="black" fill-opacity="0.01"/>
</g>
<rect opacity="0.16" width="42" height="42" rx="6" fill="#696CFF"/>
<rect x="9" y="16.8857" width="24" height="2.4" fill="#696CFF"/>
<rect x="9" y="16.8857" width="24" height="2.4" fill="white" fill-opacity="0.4"/>
<path fill-rule="evenodd" clip-rule="evenodd" d="M29.4 12.0857H12.6C10.6142 12.0915 9.00578 13.6999 9 15.6857V16.8857H33V15.6857C32.9942 13.6999 31.3858 12.0915 29.4 12.0857ZM9 26.4857C9.00586 28.4715 10.6142 30.0799 12.6 30.0857H29.4C31.3858 30.0799 32.9941 28.4715 33 26.4857V19.2857H9V26.4857Z" fill="#696CFF"/>
<path fill-rule="evenodd" clip-rule="evenodd" d="M29.4 12.0857H12.6C10.6142 12.0915 9.00578 13.6999 9 15.6857V16.8857H33V15.6857C32.9942 13.6999 31.3858 12.0915 29.4 12.0857ZM9 26.4857C9.00586 28.4715 10.6142 30.0799 12.6 30.0857H29.4C31.3858 30.0799 32.9941 28.4715 33 26.4857V19.2857H9V26.4857Z" fill="white" fill-opacity="0.6"/>
<path fill-rule="evenodd" clip-rule="evenodd" d="M18.6 24.0857H15C14.3373 24.0857 13.8 23.5485 13.8 22.8857C13.8 22.223 14.3373 21.6857 15 21.6857H18.6C19.2627 21.6857 19.8 22.223 19.8 22.8857C19.8 23.5485 19.2627 24.0857 18.6 24.0857Z" fill="#696CFF"/>
<defs>
<filter id="filter0_d_0_865" x="0" y="0" width="42" height="42" filterUnits="userSpaceOnUse" color-interpolation-filters="sRGB">
<feFlood flood-opacity="0" result="BackgroundImageFix"/>
<feColorMatrix in="SourceAlpha" type="matrix" values="0 0 0 0 0 0 0 0 0 0 0 0 0 0 0 0 0 0 127 0" result="hardAlpha"/>
<feOffset/>
<feColorMatrix type="matrix" values="0 0 0 0 0 0 0 0 0 0 0 0 0 0 0 0 0 0 0.01 0"/>
<feBlend mode="normal" in2="BackgroundImageFix" result="effect1_dropShadow_0_865"/>
<feBlend mode="normal" in="SourceGraphic" in2="effect1_dropShadow_0_865" result="shape"/>
</filter>
</defs>
</svg>
