<?xml version="1.0" standalone="no"?>
<!DOCTYPE svg PUBLIC "-//W3C//DTD SVG 20010904//EN"
 "http://www.w3.org/TR/2001/REC-SVG-20010904/DTD/svg10.dtd">
<svg version="1.0" xmlns="http://www.w3.org/2000/svg"
 width="2592.000000pt" height="2592.000000pt" viewBox="0 0 2592.000000 2592.000000"
 preserveAspectRatio="xMidYMid meet">
<metadata>
Created by potrace 1.14, written by Peter Selinger 2001-2017
</metadata>
<g transform="translate(0.000000,2592.000000) scale(0.100000,-0.100000)"
fill="#000000" stroke="none">
<path d="M4366 16913 c-1 -1 -46 -4 -101 -7 -55 -2 -100 -5 -100 -6 0 -1 -27
-3 -60 -5 -33 -2 -80 -6 -105 -10 -25 -4 -54 -8 -65 -9 -11 -2 -45 -7 -75 -11
-30 -5 -64 -9 -75 -11 -11 -1 -20 -3 -20 -4 0 -1 -11 -3 -25 -5 -55 -7 -270
-59 -365 -87 -55 -16 -107 -31 -115 -33 -8 -1 -22 -5 -30 -8 -8 -3 -77 -29
-154 -57 -76 -28 -152 -58 -167 -66 -16 -8 -29 -11 -29 -8 0 4 -8 0 -17 -8
-10 -9 -35 -21 -55 -27 -21 -7 -40 -17 -44 -22 -3 -5 -10 -7 -15 -4 -5 4 -9 2
-9 -3 0 -5 -9 -12 -20 -15 -32 -8 -33 -9 -72 -33 -21 -13 -40 -24 -43 -24 -13
0 -228 -129 -349 -208 -198 -131 -340 -244 -518 -412 -79 -73 -120 -116 -223
-225 -11 -12 -42 -48 -69 -81 -27 -32 -55 -63 -61 -69 -6 -5 -20 -23 -31 -40
-10 -16 -25 -36 -32 -45 -51 -58 -72 -87 -72 -97 0 -6 -4 -13 -9 -15 -11 -4
-141 -196 -141 -209 0 -5 -4 -9 -10 -9 -5 0 -10 -5 -10 -10 0 -10 -89 -170
-100 -180 -3 -3 -14 -25 -25 -50 -11 -25 -22 -47 -25 -50 -6 -4 -19 -32 -25
-50 -1 -3 -15 -34 -32 -70 -59 -126 -82 -180 -76 -180 3 0 1 -6 -5 -12 -11
-14 -115 -315 -115 -335 0 -7 -4 -13 -9 -13 -5 0 -7 -4 -4 -8 2 -4 -4 -39 -15
-77 -20 -71 -25 -93 -34 -142 -3 -16 -10 -48 -15 -73 -5 -25 -12 -61 -14 -80
-3 -19 -8 -46 -11 -60 -2 -13 -7 -41 -10 -62 -3 -21 -7 -56 -10 -78 -3 -21 -8
-65 -10 -97 -2 -32 -5 -58 -5 -58 -5 0 -9 -140 -9 -305 0 -264 1 -280 11 -280
5 0 4 -8 -1 -19 -6 -10 -8 -20 -6 -23 5 -4 13 -59 20 -133 2 -22 7 -58 10 -80
4 -22 8 -45 9 -52 4 -24 13 -23 30 2 44 66 190 197 286 256 30 18 57 36 60 39
9 10 145 69 217 95 65 22 105 33 158 40 11 2 22 4 25 6 3 1 16 3 30 4 14 2 27
4 30 5 6 3 59 7 120 10 155 6 372 -33 515 -95 22 -9 51 -22 65 -27 14 -6 28
-11 33 -10 4 1 7 -3 7 -10 0 -6 3 -8 6 -5 4 3 18 -3 32 -13 40 -32 44 -26 36
53 -14 151 -8 457 12 562 26 136 25 130 39 200 9 40 11 47 18 65 3 8 19 58 36
110 17 52 36 104 41 115 5 11 29 63 53 115 38 84 160 297 176 310 4 3 25 30
46 60 98 135 195 237 383 403 18 15 35 27 38 27 4 0 14 8 23 18 9 9 50 39 91
67 41 27 77 52 80 55 5 6 87 50 137 74 13 6 23 14 23 19 0 4 4 7 10 7 5 0 35
12 67 27 32 15 60 28 63 28 3 1 22 9 42 18 21 10 43 17 51 17 7 0 17 4 22 9
11 10 159 59 201 67 15 3 31 7 34 9 4 2 22 7 41 10 47 9 64 13 64 15 0 2 25 6
80 14 17 2 30 5 30 6 0 1 14 3 30 4 17 2 64 7 105 11 162 17 470 7 600 -20 14
-3 41 -8 60 -11 19 -3 78 -17 130 -30 52 -14 101 -26 108 -26 6 -1 12 -4 12
-7 0 -4 12 -8 26 -9 14 -1 31 -5 37 -9 7 -4 14 -8 17 -8 7 0 67 -24 110 -43
19 -8 35 -14 35 -12 0 7 216 -107 278 -146 37 -24 72 -44 77 -44 6 0 10 -4 10
-10 0 -5 5 -10 11 -10 6 0 16 -6 23 -12 8 -7 24 -20 37 -28 115 -75 373 -324
449 -434 8 -12 20 -27 28 -35 18 -19 134 -197 163 -251 13 -25 27 -46 32 -48
4 -2 7 -9 7 -15 0 -6 13 -38 30 -71 49 -102 120 -293 133 -363 2 -10 7 -25 10
-33 3 -8 8 -28 11 -45 2 -16 6 -37 9 -45 3 -8 8 -33 11 -55 3 -22 7 -49 9 -60
20 -97 30 -412 17 -512 l-6 -51 93 50 c51 27 99 51 105 52 7 1 22 7 33 13 25
14 178 60 225 68 19 4 58 10 85 15 46 8 315 6 360 -3 298 -56 551 -193 728
-395 20 -23 37 -41 38 -40 6 22 14 100 25 238 11 160 6 472 -11 615 -3 23 -7
64 -10 91 -2 27 -5 49 -5 49 -2 0 -14 69 -26 150 -10 63 -13 82 -17 100 -3 11
-11 43 -17 70 -14 60 -14 61 -39 155 -10 41 -29 107 -42 145 -12 39 -23 72
-23 75 -1 3 -6 19 -13 35 -6 17 -21 57 -33 90 -49 133 -140 331 -205 450 -30
55 -55 105 -55 112 0 7 -4 13 -9 13 -5 0 -14 14 -21 30 -7 17 -16 30 -21 30
-5 0 -9 5 -9 10 0 9 -102 167 -163 253 -154 216 -426 510 -623 673 -65 54
-101 84 -139 117 -18 15 -37 27 -43 27 -6 0 -12 3 -14 8 -4 9 -67 56 -128 97
-25 17 -47 32 -50 35 -8 9 -136 88 -230 142 -109 63 -335 176 -425 212 -38 15
-83 34 -100 41 -79 36 -379 132 -500 160 -16 4 -37 8 -45 10 -52 13 -163 36
-195 41 -20 3 -47 8 -59 11 -11 2 -32 6 -46 8 -14 2 -47 6 -75 10 -58 8 -72
10 -180 21 -44 4 -115 8 -157 8 -43 1 -78 3 -78 6 0 4 -249 8 -254 3z"/>
<path d="M13138 15746 c-1 -2 -34 -6 -73 -10 -66 -6 -110 -12 -110 -16 0 -1
-13 -3 -30 -4 -36 -3 -196 -46 -210 -56 -5 -4 -22 -10 -37 -14 -77 -18 -274
-129 -388 -219 -87 -69 -198 -184 -264 -277 -115 -160 -224 -409 -260 -595 -3
-16 -8 -41 -11 -55 -5 -24 -8 -41 -20 -142 -3 -24 -7 -96 -10 -160 -2 -65 -6
-122 -10 -128 -3 -5 -3 -10 2 -10 4 0 9 -30 9 -68 1 -62 9 -152 18 -212 15
-92 43 -216 57 -245 5 -11 11 -29 12 -40 2 -11 8 -29 12 -40 5 -11 16 -41 26
-67 43 -111 138 -276 208 -363 14 -16 68 -73 121 -125 103 -102 219 -186 340
-246 50 -25 148 -65 167 -68 7 -1 16 -5 19 -9 4 -4 17 -7 29 -7 11 0 26 -5 33
-12 7 -7 12 -9 12 -6 0 4 15 2 33 -3 161 -47 481 -56 667 -19 30 6 66 14 79
16 14 3 28 7 33 10 4 3 18 7 30 10 33 7 40 10 71 22 15 7 38 16 51 21 88 35
356 251 356 287 0 7 3 14 8 16 4 2 17 16 30 32 18 24 22 26 23 10 0 -11 2 -28
4 -39 2 -11 6 -47 9 -80 4 -33 9 -82 11 -110 3 -27 7 -72 9 -98 2 -27 8 -53
12 -57 13 -12 104 -17 104 -5 0 7 3 7 8 0 7 -10 132 -15 132 -5 0 5 29 4 103
-3 20 -2 37 1 37 5 0 5 4 6 10 3 15 -9 80 -12 86 -4 2 4 13 5 24 2 11 -3 20
-1 21 3 5 61 0 1706 -5 1712 -4 4 -312 7 -685 7 l-678 0 -1 -77 c0 -43 -3 -82
-7 -88 -3 -5 -3 -10 2 -10 4 0 7 -30 5 -67 -4 -110 -3 -154 3 -172 5 -15 38
-17 396 -16 l390 1 -5 -51 c-3 -27 -9 -64 -15 -82 -5 -17 -7 -34 -3 -37 3 -3
0 -6 -7 -6 -7 0 -10 -4 -6 -9 5 -8 -14 -67 -48 -151 -6 -14 -11 -31 -13 -37
-1 -7 -9 -20 -18 -29 -9 -8 -16 -20 -16 -25 0 -39 -159 -222 -242 -278 -49
-32 -182 -90 -227 -97 -14 -3 -39 -9 -56 -14 -79 -25 -349 -28 -445 -6 -14 4
-38 9 -55 12 -91 16 -245 88 -325 152 -214 170 -323 404 -356 762 -5 57 -5
254 0 300 15 126 24 184 38 235 6 22 12 45 14 50 14 61 70 193 93 219 9 10 15
20 13 22 -4 7 70 114 79 114 5 0 9 5 9 10 0 35 240 221 273 212 4 -1 7 2 7 7
0 11 168 63 255 79 44 8 345 8 380 0 17 -4 44 -10 60 -13 17 -3 37 -8 45 -12
8 -3 23 -8 32 -9 34 -7 163 -75 198 -104 104 -88 141 -134 191 -239 l37 -76
316 -1 316 0 -2 29 c-1 16 -6 31 -10 33 -4 3 -8 13 -8 23 0 17 -23 82 -56 158
-8 17 -14 34 -14 39 0 4 -6 15 -14 23 -8 9 -16 23 -18 31 -8 40 -122 192 -204
274 -76 76 -192 166 -214 166 -5 0 -10 5 -10 10 0 6 -6 10 -14 10 -8 0 -16 3
-18 8 -3 7 -84 48 -148 75 -65 27 -198 67 -275 82 -16 3 -39 8 -50 10 -61 12
-128 17 -292 20 -99 2 -183 2 -185 1z"/>
<path d="M15295 15691 c-3 -2 -5 -706 -5 -1563 0 -1358 2 -1559 15 -1564 26
-10 125 -9 125 1 0 7 3 7 8 0 7 -10 132 -15 132 -5 0 6 53 4 93 -3 15 -3 27
-2 27 3 0 5 6 7 14 4 19 -7 106 -10 106 -4 0 3 12 6 27 5 l27 0 0 615 1 615
230 1 c233 1 259 -1 249 -17 -3 -5 0 -9 5 -9 6 0 10 -3 9 -7 -1 -5 18 -48 41
-98 24 -49 58 -121 76 -160 18 -38 56 -119 85 -180 29 -60 65 -137 80 -170 29
-62 91 -195 154 -327 20 -43 35 -80 34 -82 -2 -2 5 -12 14 -22 9 -11 17 -23
17 -27 -1 -4 12 -35 27 -68 22 -48 34 -61 58 -68 17 -4 36 -4 42 0 6 5 13 6
16 4 8 -8 78 -12 83 -5 2 4 27 4 55 0 27 -4 50 -3 50 1 0 5 6 6 14 3 23 -9
146 -10 146 -1 0 5 5 5 11 2 14 -9 113 -10 127 -1 6 3 13 3 16 -2 3 -5 19 -7
36 -4 21 3 30 10 30 23 0 11 -4 19 -10 19 -5 0 -10 4 -10 9 0 6 -93 198 -207
428 -114 230 -208 421 -208 425 0 3 -3 10 -8 14 -10 10 -57 110 -57 122 0 5
-7 15 -15 22 -8 7 -12 16 -9 21 3 5 1 9 -3 9 -5 0 -15 17 -22 38 -8 20 -20 44
-28 53 -7 9 -15 25 -17 35 -2 11 -14 36 -26 57 l-22 37 36 15 c20 8 39 16 43
16 15 1 163 84 194 108 47 37 149 141 176 181 83 123 149 292 157 405 1 11 4
25 7 30 16 26 -3 304 -24 370 -17 51 -30 101 -29 108 1 4 -2 7 -8 7 -5 0 -10
7 -10 15 0 17 -50 113 -90 170 -60 88 -189 203 -270 241 -8 4 -17 10 -20 13
-6 7 -99 53 -115 57 -5 1 -35 12 -65 23 -30 12 -65 21 -77 21 -13 0 -23 5 -23
11 0 5 -4 8 -9 5 -5 -3 -33 -1 -62 5 -30 6 -74 13 -99 16 -58 6 -1339 11
-1345 4z m1255 -483 c8 -2 31 -8 50 -12 126 -27 238 -101 281 -185 8 -14 17
-28 20 -31 3 -3 16 -32 28 -65 29 -76 37 -243 16 -332 -14 -59 -56 -152 -85
-187 -68 -81 -181 -147 -275 -161 -27 -4 -61 -9 -75 -12 -46 -7 -630 -6 -638
1 -4 4 -7 229 -7 500 l-1 493 336 -2 c184 -2 342 -5 350 -7z"/>
<path d="M19589 15689 c-13 -3 -49 -18 -79 -32 -30 -14 -138 -62 -240 -107
-254 -112 -268 -119 -327 -146 -29 -13 -63 -28 -76 -33 l-24 -9 0 -214 c0
-117 1 -216 3 -219 2 -4 21 -3 41 2 48 12 97 23 146 34 12 2 34 7 49 11 15 3
30 5 33 5 2 0 22 6 42 13 35 12 165 40 188 41 7 0 11 -418 12 -1230 0 -676 2
-1233 2 -1237 1 -7 6 -8 89 -8 9 0 33 0 52 1 19 1 41 1 48 0 6 -1 19 -1 27 -1
8 0 23 0 33 0 9 0 33 0 52 1 19 1 41 1 48 0 12 -1 25 -1 60 -1 9 0 53 0 96 0
44 -1 82 3 85 8 5 8 6 3014 2 3107 -1 20 -7 21 -170 21 -93 0 -179 -3 -192 -7z"/>
<path d="M21903 15672 c-13 -14 -23 -28 -23 -33 0 -4 -6 -14 -13 -21 -7 -7
-41 -53 -76 -103 -34 -49 -81 -117 -104 -150 -23 -33 -107 -152 -185 -265
-177 -253 -174 -249 -189 -265 -7 -8 -13 -16 -13 -20 0 -3 -24 -38 -53 -78
-28 -40 -66 -92 -82 -117 -16 -25 -32 -47 -35 -50 -3 -3 -25 -34 -49 -70 -25
-36 -53 -76 -64 -90 -10 -14 -72 -101 -137 -195 -65 -93 -123 -175 -129 -182
-6 -7 -11 -15 -11 -18 0 -4 -6 -13 -12 -20 -27 -30 -38 -44 -38 -50 0 -8 -74
-110 -82 -113 -5 -2 -8 -8 -8 -13 0 -6 -5 -15 -11 -22 -5 -7 -39 -53 -75 -104
l-64 -92 0 -229 0 -229 766 1 c500 1 768 -2 773 -9 4 -5 7 -137 6 -292 l-1
-281 23 -5 c13 -2 25 -1 28 3 2 3 27 4 55 0 33 -4 50 -3 50 4 0 7 3 8 8 1 7
-10 132 -15 132 -5 0 5 29 4 103 -3 20 -2 37 1 37 5 0 5 4 6 10 3 15 -9 80
-12 86 -4 2 4 13 5 24 2 20 -5 20 0 20 288 l0 294 202 0 203 0 3 248 2 248
-37 -2 c-21 0 -55 1 -75 3 -21 2 -38 1 -38 -2 0 -4 -15 -5 -32 -3 -18 2 -48 3
-65 3 -33 -1 -54 0 -83 1 -8 0 -20 0 -25 -1 -6 -1 -20 -2 -32 -1 l-23 1 -2
1028 -3 1027 -320 1 -320 0 -22 -24z m130 -1159 c-2 -296 -3 -540 -4 -543 -1
-3 -1 -8 0 -12 1 -14 3 -134 1 -143 -1 -5 -1 -47 0 -92 l1 -83 -28 -1 c-15 -1
-37 -1 -48 0 -22 2 -44 2 -118 0 -27 0 -51 1 -53 4 -3 3 -19 1 -36 -4 -19 -5
-38 -4 -49 2 -13 7 -19 6 -19 -1 0 -6 -5 -8 -11 -5 -14 10 -59 14 -59 6 0 -9
-63 -6 -78 3 -7 4 -12 2 -12 -4 0 -6 -5 -8 -11 -5 -14 10 -59 14 -59 6 0 -9
-63 -6 -78 3 -7 4 -12 2 -12 -4 0 -6 -5 -8 -11 -5 -14 10 -59 14 -59 6 0 -6
-13 -6 -102 1 -21 2 -38 0 -38 -3 0 -7 -57 -2 -71 7 -9 5 47 95 64 102 4 2 7
8 7 13 0 9 36 65 50 79 3 3 10 13 15 22 13 23 128 192 135 198 3 3 46 66 95
140 50 74 93 137 98 138 4 2 7 9 7 16 0 7 9 21 20 31 11 10 20 23 20 29 0 10
13 28 60 83 5 7 10 14 10 17 0 4 90 140 107 161 5 6 22 31 38 57 17 27 33 48
38 48 4 0 7 4 7 10 0 8 63 105 88 135 4 6 17 25 27 43 11 17 23 32 27 32 4 0
8 6 8 13 0 13 19 37 30 37 3 0 4 -242 3 -537z"/>
<path d="M4456 14543 c-1 -1 -40 -4 -86 -7 -47 -2 -85 -5 -85 -6 0 -1 -12 -3
-26 -5 -81 -11 -218 -43 -284 -66 -248 -89 -433 -206 -610 -384 -113 -114
-162 -171 -185 -215 -7 -14 -16 -27 -20 -30 -11 -8 -55 -86 -101 -180 -73
-150 -123 -312 -144 -469 -2 -14 -4 -26 -5 -26 -1 0 -3 -31 -5 -70 -2 -38 -4
-72 -5 -75 -5 -18 6 -227 15 -277 2 -15 10 -53 16 -83 6 -30 12 -64 14 -75 12
-67 106 -307 144 -364 8 -13 16 -31 17 -39 2 -8 6 -18 11 -21 10 -8 53 -68 53
-76 0 -4 41 -61 81 -110 16 -20 217 -221 239 -239 37 -31 151 -107 215 -143
158 -91 371 -164 555 -189 71 -10 360 -11 425 -2 99 15 120 18 137 24 9 2 27
7 40 9 113 22 459 174 488 215 3 4 15 13 28 19 27 14 40 24 136 107 86 75 167
161 221 234 22 30 45 61 52 68 7 7 13 17 13 22 0 5 6 15 13 22 51 56 180 353
202 466 2 13 6 31 9 40 3 9 7 33 10 52 3 19 8 46 11 60 9 46 21 261 15 280 -1
3 -3 39 -5 81 -2 42 -7 89 -10 105 -4 16 -9 45 -12 64 -3 19 -16 73 -30 120
-14 47 -26 90 -27 95 -2 6 -8 24 -15 40 -6 17 -17 44 -23 60 -37 93 -144 272
-226 378 -17 22 -215 220 -242 242 -127 104 -430 263 -530 279 -8 1 -22 5 -30
9 -18 8 -216 48 -227 46 -4 -1 -10 0 -13 1 -3 1 -34 4 -70 5 -36 2 -65 4 -65
5 0 2 -76 5 -79 3z"/>
<path d="M18256 13203 c-2 -2 -17 -6 -32 -8 -16 -2 -30 -4 -31 -6 -2 -1 -6 -2
-10 -3 -32 -7 -95 -48 -132 -85 -64 -65 -92 -133 -93 -226 -2 -161 82 -277
240 -329 51 -17 167 -19 228 -3 103 26 219 146 240 248 20 98 -9 211 -73 290
-38 46 -44 51 -99 79 -16 8 -31 17 -34 20 -3 3 -10 6 -16 7 -6 1 -24 5 -40 8
-34 8 -143 13 -148 8z"/>
<path d="M7378 12435 c-2 -1 -32 -5 -68 -8 -76 -7 -109 -13 -147 -28 -16 -6
-29 -10 -31 -10 -6 3 -58 -13 -62 -19 -3 -3 -27 -14 -53 -24 -40 -15 -148 -82
-247 -153 -35 -26 -190 -183 -190 -193 0 -4 -4 -10 -8 -12 -11 -5 -95 -116
-123 -164 -83 -143 -141 -230 -196 -299 -5 -5 -24 -30 -42 -55 -98 -129 -353
-358 -506 -455 -33 -21 -71 -45 -85 -54 -28 -19 -254 -135 -257 -133 -2 1 -23
-7 -47 -18 -24 -10 -82 -31 -128 -45 -45 -15 -90 -30 -98 -33 -20 -7 -30 -9
-60 -15 -14 -3 -25 -6 -25 -7 0 -2 -36 -10 -65 -15 -14 -2 -36 -6 -50 -10 -14
-3 -40 -8 -57 -10 -18 -3 -50 -7 -70 -10 -172 -26 -432 -25 -618 1 -27 4 -60
8 -72 8 -13 1 -23 4 -23 8 0 3 -11 5 -25 3 -14 -1 -28 1 -30 6 -3 4 -13 8 -23
7 -21 0 -40 5 -133 32 -41 12 -78 23 -84 25 -5 1 -17 5 -25 8 -8 3 -44 17 -80
30 -36 13 -87 34 -115 47 -27 13 -52 23 -55 23 -3 1 -40 20 -83 44 -42 24 -82
43 -87 43 -6 0 -10 5 -10 10 0 6 -7 10 -15 10 -8 0 -15 5 -15 10 0 6 -5 10
-11 10 -12 0 -190 125 -224 157 -11 11 -28 24 -37 29 -27 15 -173 159 -240
237 -99 115 -108 127 -108 136 0 5 -4 11 -9 13 -4 2 -41 53 -81 113 -69 106
-110 163 -138 191 -7 8 -11 14 -7 14 7 0 -153 160 -201 201 -89 76 -247 166
-359 204 -50 17 -65 21 -119 31 -16 2 -33 7 -37 9 -10 7 -209 8 -236 1 -11 -2
-42 -8 -67 -11 -26 -4 -49 -11 -52 -16 -3 -5 -9 -7 -14 -4 -5 3 -17 2 -27 -3
-10 -5 -47 -22 -83 -38 -122 -55 -228 -141 -305 -249 -50 -71 -99 -175 -109
-235 -3 -14 -6 -25 -7 -25 -1 0 -3 -44 -4 -97 -2 -85 2 -118 29 -213 13 -46
180 -400 196 -415 9 -8 51 -83 63 -112 6 -16 15 -28 19 -28 4 0 8 -4 8 -9 0
-11 106 -172 179 -271 126 -172 206 -264 376 -434 187 -188 312 -295 491 -422
38 -27 71 -52 72 -56 2 -5 8 -8 14 -8 6 0 26 -11 44 -25 18 -14 37 -25 43 -25
6 0 11 -3 11 -8 0 -4 9 -12 19 -17 80 -42 141 -79 141 -88 0 -6 3 -8 6 -5 3 4
31 -8 62 -26 63 -35 254 -128 262 -128 3 1 14 -5 25 -12 20 -13 335 -135 365
-141 8 -2 42 -12 75 -23 77 -25 329 -89 375 -95 19 -3 36 -6 38 -7 3 -3 11 -5
63 -13 25 -4 57 -10 70 -12 13 -2 44 -6 69 -9 25 -3 56 -8 70 -11 14 -3 61 -7
105 -10 44 -2 80 -5 80 -6 0 -8 426 -11 550 -4 39 2 70 4 70 5 0 1 25 3 55 5
30 2 71 6 90 9 19 3 53 8 75 12 22 3 49 7 60 8 11 2 40 7 65 10 25 4 54 10 65
13 11 4 31 7 45 9 55 4 286 63 425 108 140 46 379 138 383 148 2 4 10 8 17 8
15 0 227 103 316 153 60 34 172 100 203 120 40 25 222 151 251 174 17 13 35
27 40 31 74 55 140 110 197 165 16 15 31 27 34 27 8 0 270 267 325 331 68 79
169 206 213 269 22 30 43 57 48 58 4 2 8 9 8 16 0 7 8 21 18 32 9 11 26 35 36
54 11 19 23 37 26 40 4 3 22 32 41 65 18 33 35 62 38 65 4 3 17 25 30 50 13
25 41 79 63 120 47 89 158 344 182 416 26 81 28 94 31 198 3 148 -40 275 -136
397 -50 63 -48 61 -119 120 -104 88 -277 161 -410 174 -36 3 -77 8 -92 10 -15
2 -28 2 -30 0z"/>
<path d="M20343 10512 l-33 -3 0 -579 0 -580 25 10 c16 6 25 6 25 0 0 -5 8 -6
17 -3 15 6 65 8 78 3 3 -1 17 -2 32 -3 l28 -1 1 240 c1 216 3 243 22 284 11
25 30 55 43 67 29 27 96 56 109 48 6 -4 10 -1 10 5 0 7 6 8 18 2 9 -4 24 -8
32 -7 28 2 85 -33 103 -64 28 -48 29 -61 31 -318 1 -133 5 -245 8 -248 8 -9
91 -10 104 -3 5 4 16 3 24 -2 8 -5 22 -5 32 1 13 7 18 6 18 -3 0 -9 3 -9 11
-1 7 7 9 98 7 289 -4 308 -9 338 -72 421 -30 42 -104 88 -156 98 -32 7 -129 7
-156 1 -46 -10 -111 -46 -143 -80 -19 -20 -37 -36 -40 -36 -4 0 -6 104 -5 230
0 202 -2 230 -15 231 -104 3 -131 4 -158 1z"/>
<path d="M21360 10510 l-75 -5 0 -569 0 -569 23 -8 c12 -5 22 -5 22 -1 0 6 79
7 88 2 1 -1 12 -3 24 -3 18 -1 24 7 34 45 6 26 9 49 6 52 -3 4 -1 6 4 6 5 0
25 -16 44 -35 19 -19 40 -35 47 -35 7 0 13 -4 13 -9 0 -8 40 -24 65 -26 6 0
15 -3 20 -7 6 -3 48 -5 95 -3 178 6 301 104 361 290 15 46 16 208 1 245 -5 14
-10 28 -11 33 -1 9 -31 64 -56 102 -27 41 -83 92 -125 112 -91 44 -168 55
-260 38 -25 -5 -48 -8 -52 -7 -5 1 -8 -2 -8 -8 0 -5 -6 -10 -13 -10 -8 0 -22
-9 -32 -20 -10 -11 -22 -20 -27 -20 -5 0 -20 -12 -33 -27 l-24 -28 -1 231 0
232 -27 3 c-16 2 -62 2 -103 -1z m447 -537 c45 -21 64 -39 99 -95 23 -36 27
-54 27 -118 1 -57 -4 -85 -21 -116 -44 -85 -123 -128 -219 -121 -126 11 -206
105 -205 242 1 167 171 278 319 208z"/>
<path d="M12100 10503 c0 -4 -19 -9 -43 -10 -39 -3 -82 -9 -82 -13 0 -1 -9 -3
-19 -5 -41 -8 -151 -71 -192 -111 -80 -78 -143 -201 -161 -311 -9 -57 -8 -234
2 -283 11 -51 11 -52 24 -85 7 -16 14 -35 15 -40 8 -49 158 -225 191 -225 7 0
18 -6 24 -14 6 -7 44 -24 84 -36 58 -19 94 -23 182 -23 61 0 121 2 135 5 93
16 174 56 236 115 44 43 87 93 78 93 -3 0 2 10 10 22 9 12 16 30 16 40 0 10 4
18 8 18 5 0 9 6 9 13 0 6 3 22 7 34 7 21 5 21 -107 22 l-113 1 -12 -33 c-24
-67 -97 -128 -173 -143 -33 -7 -138 -7 -169 -1 -51 11 -122 54 -157 95 -21 25
-38 48 -39 51 0 3 -9 24 -18 46 -35 77 -43 246 -16 345 12 47 57 127 87 157
82 81 242 110 352 63 59 -26 116 -84 126 -129 7 -33 39 -59 50 -41 4 6 12 7
18 3 12 -8 165 -8 173 -1 7 8 -34 119 -62 166 -46 78 -132 146 -227 180 -53
18 -77 23 -153 26 -34 2 -67 7 -73 10 -6 4 -11 4 -11 -1z"/>
<path d="M25477 10503 c-3 -5 -4 -106 -3 -226 0 -120 0 -220 -2 -222 -2 -1
-18 12 -35 30 -38 38 -98 71 -150 80 -72 14 -188 4 -214 -17 -7 -6 -13 -7 -13
-4 0 4 -13 -2 -30 -14 -16 -12 -30 -18 -30 -14 0 4 -26 -19 -58 -52 -82 -82
-122 -176 -123 -286 -1 -29 0 -55 1 -58 1 -3 3 -23 4 -45 2 -23 8 -50 13 -60
5 -11 20 -40 31 -65 12 -25 34 -59 50 -77 33 -40 121 -103 142 -103 9 0 21 -5
27 -11 15 -15 161 -20 214 -7 42 11 95 41 111 63 4 6 8 6 8 1 0 -5 9 3 21 18
28 35 36 33 43 -11 12 -68 16 -74 35 -63 10 5 21 7 24 3 4 -3 35 -6 69 -6 l63
-1 1 113 c1 61 4 115 8 118 3 3 1 12 -5 20 -9 10 -8 13 1 13 8 0 9 4 3 13 -11
15 -10 97 1 116 5 7 5 16 0 20 -12 8 -13 91 -1 91 6 0 6 5 0 13 -10 13 -9 184
1 194 3 3 1 12 -5 20 -9 10 -8 13 0 13 7 0 9 5 4 13 -11 17 -10 100 1 115 6 8
6 16 0 20 -11 9 -13 92 -2 92 5 0 6 6 1 13 -9 15 -11 94 -1 130 l7 27 -104 0
c-57 0 -106 -3 -108 -7z m-135 -528 c120 -50 169 -209 104 -337 -40 -80 -109
-118 -203 -113 -69 4 -87 10 -134 47 -116 90 -107 310 16 385 66 40 150 47
217 18z"/>
<path d="M17435 10480 c-20 -8 -20 -15 -19 -561 1 -305 2 -557 3 -561 0 -4 15
-3 31 2 19 5 30 5 30 -1 0 -6 5 -7 11 -4 15 10 80 12 85 3 3 -4 16 -3 29 2 13
5 26 6 29 2 5 -8 64 -8 72 1 4 3 15 2 25 -3 12 -7 19 -6 21 2 3 8 9 8 25 0 11
-6 23 -8 27 -5 3 3 32 7 63 8 32 1 78 5 102 9 66 12 177 62 213 95 66 62 90
89 101 113 6 15 15 28 18 28 7 0 41 95 57 160 23 98 10 295 -29 400 -27 76
-102 173 -159 206 -16 10 -30 22 -30 26 0 4 -9 8 -19 8 -11 0 -23 4 -26 10
-10 16 -135 50 -192 53 -29 1 -53 6 -53 11 0 5 -6 4 -13 -2 -7 -6 -18 -8 -24
-4 -14 9 -77 7 -92 -3 -6 -3 -11 -2 -11 3 0 6 -14 7 -34 2 -19 -4 -38 -5 -41
-2 -9 9 -55 8 -55 -1 0 -4 -4 -5 -10 -2 -16 10 -81 12 -86 3 -3 -5 -11 -5 -17
0 -7 5 -21 6 -32 2z m465 -185 c112 -19 193 -83 230 -183 18 -47 32 -121 31
-167 -2 -199 -42 -297 -151 -363 -20 -11 -47 -23 -60 -25 -14 -3 -37 -8 -52
-12 -15 -4 -84 -8 -153 -9 l-126 -2 1 41 c0 22 0 59 -2 82 -1 24 1 45 4 49 4
3 3 18 -2 33 -4 16 -4 34 0 41 5 7 4 24 -1 37 -5 14 -5 23 1 23 5 0 7 7 3 17
-8 20 -8 81 -1 89 4 3 3 18 -2 33 -4 16 -4 34 0 41 5 7 4 24 -1 37 -5 14 -5
23 1 23 5 0 7 7 3 17 -6 14 -7 70 -3 91 1 4 1 32 0 63 l-1 56 118 -2 c65 -1
138 -5 163 -10z"/>
<path d="M15509 10358 c-1 -4 -2 -11 -3 -15 -1 -5 -6 -42 -10 -83 -11 -110
-10 -108 -64 -108 -94 0 -87 5 -85 -64 1 -35 2 -73 2 -85 1 -19 6 -21 31 -18
17 2 30 -1 30 -7 0 -7 5 -7 13 -1 11 8 21 9 52 5 6 -1 10 -77 9 -205 0 -215 8
-274 49 -329 25 -33 114 -80 157 -82 16 0 30 -4 30 -7 0 -3 18 -3 40 1 22 4
40 3 40 -2 0 -5 9 -4 20 2 13 7 26 7 38 1 31 -16 38 1 38 89 l-1 85 -65 1
c-83 1 -112 8 -128 34 -16 26 -19 400 -3 409 5 4 53 6 105 5 64 -1 96 3 97 10
1 6 1 44 2 85 l1 75 -108 0 -109 1 2 106 2 106 -90 0 c-50 0 -92 -4 -92 -9z"/>
<path d="M13255 10172 c-69 -7 -195 -68 -178 -86 3 -3 0 -6 -8 -6 -8 0 -23
-13 -32 -30 -20 -34 -37 -39 -38 -12 -1 34 -11 107 -14 110 -6 6 -165 8 -174
2 -4 -3 -7 -182 -7 -398 0 -374 1 -393 18 -389 10 3 18 1 18 -4 0 -4 8 -5 17
-2 15 6 68 8 76 3 1 -1 18 -2 38 -3 l36 -2 1 207 c1 221 9 273 48 325 31 41
107 70 180 68 48 -1 55 2 60 21 3 12 3 36 1 53 -3 17 -1 31 4 31 5 0 5 10 1
23 -4 12 -7 37 -6 54 3 38 0 40 -41 35z"/>
<path d="M14839 10176 c-2 -2 -20 -6 -39 -9 -66 -9 -129 -44 -176 -97 -27 -30
-30 -28 -38 29 -3 24 -8 46 -10 49 -7 6 -166 8 -175 2 -9 -6 -11 -1140 -2
-1141 42 -6 185 -2 191 6 4 6 7 108 6 228 0 119 0 217 1 217 1 0 16 -13 33
-30 30 -29 99 -70 130 -77 39 -9 177 -9 205 -1 44 14 49 16 55 14 6 -1 68 42
94 66 11 10 23 18 28 18 4 0 8 7 8 15 0 9 6 18 14 21 17 6 73 126 81 174 8 44
8 157 0 190 -22 93 -50 144 -110 206 -72 73 -142 108 -230 113 -27 2 -53 5
-56 7 -3 2 -8 2 -10 0z m29 -190 c7 -4 17 -4 22 -1 6 3 10 1 10 -4 0 -6 7 -11
15 -11 21 0 44 -19 90 -74 13 -17 22 -33 19 -38 -3 -4 -1 -8 3 -8 10 0 12 -14
14 -85 2 -65 -3 -105 -13 -105 -4 0 -8 -6 -8 -14 0 -20 -34 -59 -80 -91 -34
-24 -53 -29 -110 -31 -57 -2 -77 2 -117 22 -100 52 -140 168 -104 302 7 23 16
42 21 42 6 0 10 5 10 11 0 19 64 69 100 79 70 17 107 19 128 6z"/>
<path d="M16415 10172 c-79 -7 -187 -46 -223 -79 -7 -7 -21 -18 -31 -25 -29
-21 -88 -115 -106 -168 -23 -69 -27 -172 -9 -249 8 -35 17 -68 21 -75 4 -6 8
-13 8 -16 0 -3 12 -23 27 -45 73 -113 202 -176 350 -170 62 3 113 9 113 15 0
1 8 3 18 5 36 7 129 70 161 110 111 135 131 307 58 478 -9 20 -20 37 -24 37
-5 0 -8 6 -8 13 0 18 -96 107 -116 107 -10 0 -14 3 -10 7 18 19 -159 62 -229
55z m77 -186 c25 -5 52 -21 83 -53 25 -25 43 -48 41 -51 -3 -3 -1 -11 5 -18
14 -17 18 -137 7 -189 -20 -91 -88 -147 -183 -151 -128 -6 -209 94 -200 246 1
25 3 54 4 66 1 27 48 96 84 125 29 22 79 38 107 34 8 -1 32 -5 52 -9z"/>
<path d="M18846 10168 c-73 -9 -172 -54 -218 -100 -39 -38 -72 -96 -81 -145
l-6 -33 99 0 100 0 17 35 c34 71 153 100 239 59 45 -21 62 -48 71 -111 l6 -43
-59 0 c-269 -1 -353 -19 -427 -91 -21 -22 -36 -39 -33 -39 4 0 0 -10 -9 -23
-21 -33 -25 -113 -8 -170 19 -65 82 -125 154 -148 75 -23 211 -19 265 9 46 25
104 75 104 91 0 24 30 10 31 -14 4 -75 15 -98 39 -85 12 7 21 7 25 0 3 -5 15
-6 29 0 12 4 28 5 35 1 7 -5 22 -6 34 -4 l23 4 -1 277 c-2 330 -7 355 -89 438
-77 76 -200 110 -340 92z m207 -515 c-35 -103 -85 -145 -179 -148 -52 -2 -70
2 -92 18 -15 11 -29 22 -31 24 -2 1 -5 20 -7 42 -3 49 23 87 69 100 18 5 82
10 144 10 l112 1 -16 -47z"/>
<path d="M19726 10173 c-1 -1 -20 -5 -42 -9 -91 -14 -174 -74 -208 -150 -18
-42 -23 -115 -11 -156 11 -35 90 -103 137 -118 24 -8 48 -16 53 -19 6 -3 19
-7 30 -9 23 -4 34 -7 55 -14 8 -3 46 -14 84 -24 86 -24 111 -51 96 -104 -12
-43 -40 -62 -96 -65 -23 -2 -47 -6 -53 -9 -6 -4 -11 -3 -11 1 0 5 -9 9 -20 10
-29 2 -89 52 -96 79 -7 26 -40 32 -152 26 -69 -4 -67 -2 -49 -67 19 -64 103
-144 186 -176 80 -31 252 -32 331 -1 130 51 196 174 160 302 -22 80 -122 136
-311 175 -80 17 -159 63 -159 93 0 28 48 65 91 71 69 10 149 -15 149 -47 0
-25 35 -36 121 -36 l89 -1 -6 29 c-11 51 -33 95 -62 123 -35 34 -72 64 -72 58
0 -2 -17 3 -37 12 -21 8 -49 17 -63 19 -34 5 -130 10 -134 7z"/>
<path d="M22679 10176 c-2 -2 -23 -6 -46 -10 -24 -3 -56 -12 -73 -21 -16 -8
-33 -16 -37 -16 -22 -3 -98 -66 -133 -110 -59 -75 -82 -147 -83 -254 0 -101 5
-132 27 -177 9 -17 16 -35 16 -39 0 -20 84 -110 131 -142 43 -29 115 -56 157
-59 19 -1 36 -6 38 -10 3 -5 10 -5 16 -2 6 4 33 8 62 9 28 2 63 8 79 14 15 6
27 7 27 3 0 -4 4 -2 8 3 4 6 24 19 45 29 43 22 104 77 134 121 54 80 83 234
61 330 -6 22 -11 45 -12 52 -5 28 -54 110 -92 153 -61 67 -162 115 -254 119
-30 2 -58 4 -61 7 -3 2 -8 2 -10 0z m120 -204 c74 -46 110 -123 106 -222 -5
-143 -63 -215 -179 -226 -135 -12 -218 87 -209 251 4 80 5 85 16 85 6 0 8 3 4
6 -21 22 67 111 119 120 16 3 30 7 32 9 8 8 87 -8 111 -23z"/>
<path d="M23658 10176 c-1 -2 -28 -6 -60 -10 -98 -10 -194 -60 -249 -130 -28
-35 -59 -119 -51 -133 6 -9 114 -18 179 -14 7 1 19 16 28 35 9 18 28 39 43 47
15 8 30 18 33 22 10 14 112 14 146 1 54 -21 83 -58 90 -114 l6 -50 -74 0
c-283 -1 -352 -20 -439 -126 -8 -10 -15 -21 -16 -24 0 -3 -4 -12 -7 -20 -22
-49 -11 -145 23 -201 16 -27 90 -96 90 -84 0 4 6 2 14 -4 23 -19 64 -25 167
-24 86 0 100 3 139 28 23 15 58 43 76 63 18 20 35 34 38 31 3 -3 8 -23 10 -45
6 -55 16 -77 30 -65 7 6 18 6 26 1 7 -4 24 -4 37 1 15 5 23 5 23 -2 0 -6 6 -7
16 -1 9 5 25 7 34 5 16 -4 17 14 16 284 -2 234 -5 295 -18 323 -8 19 -16 40
-17 45 -3 16 -63 76 -101 99 -47 30 -95 46 -155 52 -27 3 -55 7 -62 9 -6 2
-13 2 -15 1z m75 -477 c10 4 34 5 52 3 32 -4 33 -5 24 -35 -13 -47 -30 -78
-64 -115 -34 -36 -55 -44 -135 -47 -50 -2 -58 1 -89 32 -30 30 -32 37 -26 71
4 20 11 43 17 49 19 23 63 39 118 42 30 1 57 5 59 7 2 2 9 0 15 -5 6 -5 19 -6
29 -2z"/>
<path d="M24625 10162 c-74 -22 -140 -69 -190 -137 -14 -19 -14 -19 -16 10 -2
43 -8 98 -13 110 -3 8 -105 12 -173 6 -8 -1 -11 -104 -10 -393 l2 -393 30 -2
c17 0 32 -2 35 -3 17 -6 51 -5 62 1 6 4 19 4 28 -1 9 -5 22 -4 31 3 13 10 16
43 16 223 0 140 4 218 12 232 6 12 9 22 6 22 -4 0 7 18 24 39 39 49 99 73 184
75 l63 1 0 107 c-1 123 -3 125 -91 100z"/>
<path d="M13374 10148 c-3 -4 9 -40 27 -80 17 -40 32 -77 33 -83 2 -5 13 -32
25 -60 13 -27 29 -66 36 -85 7 -19 22 -55 33 -80 12 -25 22 -52 24 -60 2 -8 5
-17 8 -20 3 -3 16 -32 29 -65 13 -33 32 -78 42 -100 9 -22 23 -54 30 -72 7
-17 16 -30 19 -29 3 2 13 1 22 -3 16 -6 16 -10 -5 -51 -12 -25 -35 -74 -51
-110 -16 -36 -41 -92 -56 -125 -30 -66 -42 -95 -45 -110 -2 -6 37 -10 103 -9
85 1 106 4 114 17 5 9 9 19 9 22 0 2 16 40 35 82 20 43 45 98 56 123 11 25 26
59 33 76 8 16 30 66 48 110 19 43 47 106 62 139 33 74 36 81 125 285 39 91 84
192 100 225 21 46 24 61 14 65 -11 4 -163 5 -197 1 -4 -1 -11 -11 -16 -23 -5
-13 -16 -40 -25 -60 -9 -21 -16 -40 -16 -43 0 -3 -6 -18 -14 -33 -8 -16 -35
-77 -59 -138 -25 -60 -53 -127 -63 -149 -10 -22 -18 -42 -19 -45 -5 -25 -18
-50 -25 -50 -7 0 -24 36 -35 73 -1 4 -4 9 -5 12 -1 3 -3 8 -4 13 -1 4 -10 24
-19 46 -9 21 -17 40 -17 41 0 1 -8 20 -17 41 -9 22 -18 44 -19 49 -4 18 -104
258 -109 264 -9 8 -206 7 -211 -1z"/>
</g>
</svg>
